<?xml version="1.0" standalone="no"?>
<!DOCTYPE svg PUBLIC "-//W3C//DTD SVG 20010904//EN"
 "http://www.w3.org/TR/2001/REC-SVG-20010904/DTD/svg10.dtd">
<svg version="1.0" xmlns="http://www.w3.org/2000/svg"
 width="300.000000pt" height="300.000000pt" viewBox="0 0 300.000000 300.000000"
 preserveAspectRatio="xMidYMid meet">
<metadata>
Created by potrace 1.10, written by Peter Selinger 2001-2011
</metadata>
<g transform="translate(0.000000,300.000000) scale(0.100000,-0.100000)"
fill="#000000" stroke="none">
<path d="M1830 2427 c-119 -27 -258 -135 -309 -239 -37 -78 -54 -166 -47 -246
6 -68 6 -73 -11 -68 -10 2 -45 8 -78 11 -85 9 -237 49 -325 85 -179 74 -311
161 -443 293 -49 49 -90 87 -91 85 -29 -47 -53 -139 -55 -218 -4 -144 81 -313
183 -367 35 -18 30 -9 -34 67 -66 77 -90 115 -90 138 0 11 -6 22 -12 25 -10 3
-13 37 -13 129 0 105 3 127 18 142 22 22 25 21 89 -39 112 -106 233 -191 338
-238 176 -80 207 -89 382 -120 96 -16 123 -18 144 -8 25 11 26 14 22 76 -2 35
-1 62 2 60 3 -1 6 20 8 49 3 72 53 167 124 237 55 55 93 78 185 112 51 20 234
19 241 -1 2 -7 10 -12 18 -12 21 0 108 -45 123 -64 31 -37 121 -61 136 -36 3
6 17 10 30 10 13 0 27 5 30 10 3 6 16 10 29 10 12 0 27 5 33 11 7 7 12 6 17
-6 4 -11 -9 -32 -37 -63 -82 -89 -87 -96 -79 -104 11 -11 70 -13 115 -4 54 12
48 -5 -32 -82 l-69 -67 -5 -105 c-3 -58 -8 -118 -11 -135 -3 -16 -7 -43 -8
-58 0 -15 -5 -30 -10 -33 -4 -3 -8 -19 -8 -35 0 -17 -7 -43 -15 -59 -9 -17
-13 -30 -11 -30 10 0 -90 -228 -105 -240 -3 -3 -13 -19 -22 -36 -22 -43 -119
-170 -174 -227 -118 -123 -245 -211 -418 -288 -37 -16 -195 -69 -202 -67 -5 1
-19 -2 -33 -5 -89 -24 -295 -32 -414 -17 -101 13 -234 43 -266 60 -10 5 -40
17 -66 26 -53 17 -104 58 -68 53 18 -2 37 1 154 23 188 36 408 158 369 205 -6
7 -27 16 -47 19 -33 6 -84 26 -152 57 -62 29 -167 144 -166 182 1 16 8 20 41
21 35 2 95 18 95 26 0 2 -45 3 -100 3 -55 0 -100 -4 -100 -8 0 -26 61 -119
109 -168 78 -77 165 -121 274 -136 23 -3 43 -7 45 -8 9 -8 -203 -117 -271
-140 -111 -37 -167 -46 -294 -46 -62 -1 -113 -3 -113 -5 0 -9 182 -94 260
-121 169 -60 225 -68 455 -68 183 1 222 4 300 23 261 65 461 180 637 366 217
229 356 561 361 861 1 58 5 105 8 105 22 0 228 214 217 226 -3 2 -25 -4 -49
-14 -56 -24 -184 -55 -201 -50 -8 3 -1 11 17 21 44 22 119 106 150 167 14 28
25 53 23 55 -2 2 -35 -11 -73 -30 -102 -48 -211 -77 -225 -60 -23 27 -117 86
-170 105 -70 25 -189 33 -260 17z"/>
<path d="M465 1768 c11 -69 14 -84 23 -113 28 -91 117 -203 199 -252 48 -28
143 -56 143 -42 0 5 -6 9 -14 9 -8 0 -21 6 -28 13 -7 6 -31 20 -53 30 -21 10
-56 32 -77 49 -50 39 -128 141 -128 166 0 11 -4 22 -9 24 -5 2 -12 23 -16 47
l-7 44 53 -7 c29 -4 55 -7 58 -8 20 -2 64 3 60 6 -2 3 -18 7 -34 10 -68 12
-92 19 -127 37 -49 25 -50 24 -43 -13z"/>
</g>
</svg>
